<svg width="18" height="18" viewBox="0 0 18 18" fill="none" xmlns="http://www.w3.org/2000/svg">
<path d="M0 6.4C0 4.15979 0 3.03968 0.435974 2.18404C0.819467 1.43139 1.43139 0.819467 2.18404 0.435974C3.03968 0 4.15979 0 6.4 0H11.6C13.8402 0 14.9603 0 15.816 0.435974C16.5686 0.819467 17.1805 1.43139 17.564 2.18404C18 3.03968 18 4.15979 18 6.4V11.6C18 13.8402 18 14.9603 17.564 15.816C17.1805 16.5686 16.5686 17.1805 15.816 17.564C14.9603 18 13.8402 18 11.6 18H6.4C4.15979 18 3.03968 18 2.18404 17.564C1.43139 17.1805 0.819467 16.5686 0.435974 15.816C0 14.9603 0 13.8402 0 11.6V6.4Z" fill="#7E869E" fill-opacity="0.25"/>
<path d="M9 5L9 13" stroke="white" stroke-linecap="round" stroke-linejoin="round"/>
<path d="M13 9L5 9" stroke="white" stroke-linecap="round" stroke-linejoin="round"/>
</svg>
