<svg width="12" height="12" viewBox="0 0 12 12" fill="none" xmlns="http://www.w3.org/2000/svg">
<path d="M11 5.8V1M11 1H6.2M11 1L5 7" stroke="#222222" stroke-linecap="round" stroke-linejoin="round"/>
<path d="M11 7.875V7.875C11 7.99106 11 8.04909 10.9984 8.09816C10.9467 9.678 9.678 10.9467 8.09816 10.9984C8.04909 11 7.99106 11 7.875 11H6C4.13077 11 3.19615 11 2.5 10.5981C2.04394 10.3348 1.66523 9.95606 1.40192 9.5C1 8.80385 1 7.86923 1 6V4.125C1 4.00894 1 3.95091 1.00161 3.90184C1.05332 2.322 2.322 1.05332 3.90184 1.00161C3.95091 1 4.00894 1 4.125 1V1" stroke="#222222" stroke-linecap="round"/>
</svg>
